<svg xmlns="http://www.w3.org/2000/svg" xmlns:xlink="http://www.w3.org/1999/xlink" width="697" height="651" viewBox="0 0 697 651"><defs><style>.a{fill:rgba(0,0,0,0.05);}.b{fill:rgba(248,195,51,0.11);}.c{fill:#3d72d9;}.d,.l{fill:url(#a);}.e{fill:#231f20;opacity:0.15;}.f{fill:#4978bc;}.g{fill:#3a5f97;}.h{fill:#d4effc;}.i{fill:#141f3f;}.j{fill:url(#b);}.k{fill:#00aeef;}.l{opacity:0.5;}</style><linearGradient id="a" y1="0.5" x2="1" y2="0.5" gradientUnits="objectBoundingBox"><stop offset="0" stop-color="#121b2d"/><stop offset="1" stop-color="#344e80"/></linearGradient><linearGradient id="b" y1="0.5" x2="1" y2="0.5" gradientUnits="objectBoundingBox"><stop offset="0" stop-color="#00aeef"/><stop offset="1"/></linearGradient></defs><g transform="translate(-1002 -211)"><g transform="translate(-19 27.782)"><circle class="a" cx="6" cy="6" r="6" transform="translate(1481 351.218)"/><circle class="a" cx="6" cy="6" r="6" transform="translate(1509 351.218)"/><circle class="a" cx="6" cy="6" r="6" transform="translate(1537 351.218)"/><circle class="a" cx="6" cy="6" r="6" transform="translate(1566 351.218)"/><circle class="a" cx="6" cy="6" r="6" transform="translate(1594 351.218)"/><circle class="a" cx="6" cy="6" r="6" transform="translate(1622 351.218)"/><circle class="a" cx="6" cy="6" r="6" transform="translate(1650 351.218)"/><circle class="a" cx="6" cy="6" r="6" transform="translate(1678 351.218)"/><circle class="a" cx="6" cy="6" r="6" transform="translate(1481 390.218)"/><circle class="a" cx="6" cy="6" r="6" transform="translate(1509 390.218)"/><circle class="a" cx="6" cy="6" r="6" transform="translate(1537 390.218)"/><circle class="a" cx="6" cy="6" r="6" transform="translate(1566 390.218)"/><circle class="a" cx="6" cy="6" r="6" transform="translate(1594 390.218)"/><circle class="a" cx="6" cy="6" r="6" transform="translate(1622 390.218)"/><circle class="a" cx="6" cy="6" r="6" transform="translate(1650 390.218)"/><circle class="a" cx="6" cy="6" r="6" transform="translate(1678 390.218)"/><circle class="a" cx="6" cy="6" r="6" transform="translate(1481 428.218)"/><circle class="a" cx="6" cy="6" r="6" transform="translate(1509 428.218)"/><circle class="a" cx="6" cy="6" r="6" transform="translate(1537 428.218)"/><circle class="a" cx="6" cy="6" r="6" transform="translate(1566 428.218)"/><circle class="a" cx="6" cy="6" r="6" transform="translate(1594 428.218)"/><circle class="a" cx="6" cy="6" r="6" transform="translate(1622 428.218)"/><circle class="a" cx="6" cy="6" r="6" transform="translate(1650 428.218)"/><circle class="a" cx="6" cy="6" r="6" transform="translate(1678 428.218)"/><circle class="a" cx="6" cy="6" r="6" transform="translate(1481 468.218)"/><circle class="a" cx="6" cy="6" r="6" transform="translate(1509 468.218)"/><circle class="a" cx="6" cy="6" r="6" transform="translate(1537 468.218)"/><circle class="a" cx="6" cy="6" r="6" transform="translate(1566 468.218)"/><circle class="a" cx="6" cy="6" r="6" transform="translate(1594 468.218)"/><circle class="a" cx="6" cy="6" r="6" transform="translate(1622 468.218)"/><circle class="a" cx="6" cy="6" r="6" transform="translate(1650 468.218)"/><circle class="a" cx="6" cy="6" r="6" transform="translate(1678 468.218)"/><circle class="a" cx="6" cy="6" r="6" transform="translate(1481 506.218)"/><circle class="a" cx="6" cy="6" r="6" transform="translate(1509 506.218)"/><circle class="a" cx="6" cy="6" r="6" transform="translate(1537 506.218)"/><circle class="a" cx="6" cy="6" r="6" transform="translate(1566 506.218)"/><circle class="a" cx="6" cy="6" r="6" transform="translate(1594 506.218)"/><circle class="a" cx="6" cy="6" r="6" transform="translate(1622 506.218)"/><circle class="a" cx="6" cy="6" r="6" transform="translate(1650 506.218)"/><circle class="a" cx="6" cy="6" r="6" transform="translate(1678 506.218)"/><circle class="a" cx="6" cy="6" r="6" transform="translate(1706 351.218)"/><circle class="a" cx="6" cy="6" r="6" transform="translate(1706 390.218)"/><circle class="a" cx="6" cy="6" r="6" transform="translate(1706 428.218)"/><circle class="a" cx="6" cy="6" r="6" transform="translate(1706 468.218)"/><circle class="a" cx="6" cy="6" r="6" transform="translate(1706 506.218)"/></g><circle class="b" cx="102" cy="102" r="102" transform="translate(1126 211)"/><circle class="b" cx="102" cy="102" r="102" transform="translate(1389 658)"/><g transform="translate(-3810.532 -442.499)"><g transform="translate(4812.532 677.499)"><path class="c" d="M4995.215,1242.759l6.107-22.055-24.426,3.053Z" transform="translate(-4805.884 -655.525)"/><path class="d" d="M4995.63,1239.24l-29.006-23.871.595,10.9,28.411,23.663Z" transform="translate(-4806.298 -655.741)"/><path class="e" d="M4977.252,1127.058s3.531,10.98,0,26.653,19.443,17.047,24.426,23.4c0,0-16.77-4.57-24.793-6.133s-5.2,9.829,4.185,14.079,3.809,15.939,3.809,15.939l-16.807-10.625,1.547-39.155Z" transform="translate(-4806.241 -659.313)"/><path class="f" d="M5018.654,1186.868l-5.681,24.617-1.946,8.428-1.175,5.109-.354,1.54c-1.29.25-2.653.489-4.1.718h-.01c-43.117,6.815-153.634,5.285-168.4,2.341-15.264-3.059-24.43-6.107-24.43-29.008a25.016,25.016,0,0,1,1.946-8.615c2.352-6.18,6.691-13.588,11.965-21.35.031-.021.031-.031.031-.031,18.01-26.459,47.122-57.017,47.122-57.017l74.06,48.131-17.573,15.981c15.023,1.509,43.366,10.4,44.251,10.675.01.01.01.01.02.01Z" transform="translate(-4812.531 -659.858)"/><path class="g" d="M5020.83,1217.161l-10.977,5.535-4.454,2.258h-.01c-43.117,6.815-153.634,5.285-168.4,2.341-15.264-3.059-25.073-6.116-24.43-29.008.359-12.753,10.823-23.954,12.072-27.211,0,0-17.38,39.075,38.224,38.718,36.987-.236,119.756,8.979,148.17,7.793C5017.22,1217.327,5020.83,1217.161,5020.83,1217.161Z" transform="translate(-4812.533 -657.533)"/><path class="g" d="M4871.253,1113.6s17.171,36.865,61.822,59.262l15.607-15.148Z" transform="translate(-4810.157 -659.858)"/><path class="h" d="M5344.5,1113.243s-12.214,24.419-16.793,29-36.635,27.478-36.635,27.478l-15.272,16.793-287.52,7.231-16.189.406h-.083l1.529-36.634-25.958,12.2c-33.587-9.156-76.329-50.368-76.329-50.368s51.908-65.653,79.387-96.18,93.12-27.478,97.7-36.645,13.745-3.049,21.371-10.686,19.853-3.048,19.853-3.048,58,3.048,76.327,3.048c.448,0,.886.01,1.3.031,16.917.926,15.908,19.706,32.182,18.3h.01c.03,0,.063-.01.094-.01a29.81,29.81,0,0,1,7.938.26c.011,0,.011.01.021.01,10.944,1.956,16.948,10.519,33.263,18.052,19.841,9.156,36.635,32.056,48.851,47.32s10.684,4.578,27.477,25.959S5344.5,1113.243,5344.5,1113.243Z" transform="translate(-4810.157 -665.609)"/><path class="e" d="M4984.36,1187.447l-16.189.406,1.447-36.634,7.626-24.159s3.537,10.977,0,26.656,19.446,17.043,24.43,23.4c0,0-16.772-4.578-24.794-6.138s-5.2,9.832,4.183,14.077A9.3,9.3,0,0,1,4984.36,1187.447Z" transform="translate(-4806.236 -659.313)"/><path class="e" d="M5328.208,1107.729s-34.538,24.339-54.2,32.895l2.656,13.6,48.791-41.124Z" transform="translate(-4793.864 -660.095)"/><path class="e" d="M5209.538,1084.865c-1.946-11.341,7.086-23.556,7.086-23.556s-7.97,4.245-11.165,19.477a19.392,19.392,0,0,1-2.143,5.972c-3.351-8.032,3.277-15.992,3.609-16.387-.26.135-10.019,5.389-7.179,19.623a32.018,32.018,0,0,0,1.165,4.308,35.474,35.474,0,0,1,1.082,3.86c3.518,15.482-4.973,25.179-4.973,25.179h12.745s6.711-19.81-1.415-30A12.655,12.655,0,0,0,5209.538,1084.865Z" transform="translate(-4796.979 -661.973)"/><path class="e" d="M5224.225,1121.651s2.922-11.6,15.938-18.508c0,0-9.562,13.373-7.968,18.508Z" transform="translate(-4795.878 -660.281)"/><path class="e" d="M5188.2,994c-4.08,1.519-9.6,5.577-16.336,15.211-15.357,21.964-24.576,22.391-24.576,22.391l8.729-55.9C5172.938,976.625,5171.929,995.405,5188.2,994Z" transform="translate(-4798.99 -665.436)"/><path class="e" d="M5078.237,970.538s-17.251,5.381-21.235,33.688,37.932,76.92,74.619,53.276l-32.912-34.534Z" transform="translate(-4802.654 -665.645)"/><path class="g" d="M5078.557,977.14s-12.213,15.266-10.686,30.532,21.373,47.325,51.9,51.905,21.372-61.064,21.372-61.064Z" transform="translate(-4802.208 -665.378)"/><path class="f" d="M5067.56,942.451s-3.482,24.9,10.257,31.009c0,0-3.713,25.313,16.793,50.378,12.1,14.788,32.058,24.426,45.8,18.319s18.319-18.319,24.426-48.851,10.186-60.436,10.186-60.436,2.026-20.475-13.24-28.108S5075.623,885.49,5067.56,942.451Z" transform="translate(-4802.232 -668.567)"/><path class="i" d="M5174.865,935.928s0-13.74-12.213-3.054-33.585,15.267-50.377-4.58-19.847,24.426-30.534,29.006c0,0-5.049-19.865-14.209-12.233,0,0-7.163-25.932.471-47.305s30.531-36.638,59.537-33.585S5184.023,880.969,5174.865,935.928Z" transform="translate(-4802.34 -669.963)"/><path class="f" d="M5417.388,1217.434c1.082,22.6-97.272,17.126-155.371,11.934-3.485-.312-6.815-.624-9.978-.916-18.916-1.821-31.578-3.381-31.578-3.381l48.85-42.752,4.442-1.113,26.1-6.513-12.153-6.753-9.155-5.088-.229-.125-5.952-3.309,8.574-7.221,46.695-39.308s42.243,34.709,68.774,66.714C5408.221,1193.847,5416.92,1207.56,5417.388,1217.434Z" transform="translate(-4796.031 -659.887)"/><path class="g" d="M5297.868,1172.414s26.98-8.1,40.972,1.464l-69.423,8.5,2.356-3.451Z" transform="translate(-4794.05 -657.608)"/><path class="g" d="M5416.43,1214.85c1.082,22.6-97.271,17.126-155.371,11.934-2.071,8.511-3.392,14.015-3.392,14.015,0,.375-.021.739-.052,1.093l-.447-1.093-6.087-14.93-6.94-17.043s8.313.593,20.944,1.342c35.428,2.154,104.837,1.53,120.11-2.58,20.726-5.577,10.042-30.817,10.042-30.817l.207.249C5407.263,1191.263,5415.963,1204.976,5416.43,1214.85Z" transform="translate(-4795.073 -657.302)"/><path class="g" d="M5285.673,1167.936s28.157-22.316,39.934-55.042l-55.261,46.528Z" transform="translate(-4794.012 -659.886)"/><path class="i" d="M5267.766,1238.309c0,.375-.021.739-.052,1.093v.01a10.7,10.7,0,0,1-10.633,9.583H4994.5v-10.686Z" transform="translate(-4805.171 -654.813)"/><path class="j" d="M5233.755,677.854s-23.346-7.547-46.457,46.981-117.763-3.65-117.763-3.65,16.552,66.147,145.656,81.288S5326.3,813.966,5326.3,813.966l20.721-54.989Z" transform="translate(-4802.136 -677.499)"/><path class="k" d="M5406.951,853.38c-43.421,43.421-94.649,106.862-82.436,140.448s91.6,87.017,44.271,111.443-99.229,15.266-106.863,33.585H5249.71s-4.581-13.739,29.005-22.9,48.852-42.745,4.58-61.064-129.762-47.325-100.756-117.548c25.02-60.576,135.606-170.779,46.882-259.5l169.872,28.412C5425.384,741.455,5463.47,796.86,5406.951,853.38Z" transform="translate(-4797.803 -677.485)"/><path class="i" d="M5293.714,1137.84c-.78,2.882-2.06,7.866-3.641,14.15-.8,3.2-1.686,6.753-2.622,10.529-.03.125-.062.239-.094.354-1.395,5.65-2.914,11.809-4.464,18.125-2.622,10.654-5.316,21.745-7.709,31.547-1.5,6.191-2.882,11.872-4.026,16.616-2.071,8.511-3.392,14.015-3.392,14.015H4994.5l3.527-16.075.426-1.966,1.155-5.244,7.158-32.67.083-.375,12.079-55.113S5021.98,1118,5035.724,1118c10.728,0,157.41.926,221.148,1.332,4.953.031,9.417.062,13.266.083,10.03.063,15.95.1,15.95.1S5298.292,1121.047,5293.714,1137.84Z" transform="translate(-4805.171 -659.68)"/><path class="g" d="M4970.931,1185.9c-41.5-3.582-73.509-3.85-73.509-3.85,8.23-7.97,29.258-6.825,29.258-6.825C4941.7,1176.73,4970.045,1185.626,4970.931,1185.9Z" transform="translate(-4809.099 -657.367)"/><path class="e" d="M4959.6,1011.532a46.714,46.714,0,0,1,37.841,15.706c16.469,18.33-7.97,50.472-9.032,60.036s-9.564,16.712-10.892,30.8c0,0,5.313-14.333,16.469-23.9s.481-9.3,9.141-24.706,17.425-41.13,4.939-52.044-19.349-15.583-31.06-14.31S4959.6,1011.532,4959.6,1011.532Z" transform="translate(-4806.583 -664.335)"/><path class="e" d="M4973.536,1151.76s6.742-4.519,7.632-24.157a57.619,57.619,0,0,1-33.9,24.157c-23.377,5.949-76.013-38.165-76.013-38.165s36.271,37.162,76.331,50.378Z" transform="translate(-4810.157 -659.858)"/><path class="e" d="M4889.01,1091.588s15.123,6.677,22.029,17.833,28.956,20.455,28.956,20.455-19.106-13.282-25.492-24.174-20.854-19.871-20.854-19.871Z" transform="translate(-4809.438 -660.981)"/><path class="e" d="M5035.026,989.645s12.759,2.682,9.395,12.777,5.667,17.533,5.667,17.533a23.71,23.71,0,0,1-.886-19.48c4.251-10.626-7.49-14.535-7.49-14.535A17.594,17.594,0,0,1,5035.026,989.645Z" transform="translate(-4803.532 -665.022)"/><path class="l" d="M5286.085,1119.464,4994.5,1243.12h158.97l127.651-54.96,12.594-50.377S5299.573,1122.441,5286.085,1119.464Z" transform="translate(-4805.171 -659.621)"/><path class="e" d="M5272.849,1055.012s-.238,7.043-8.474,11.558-8.235,19.658-8.235,19.658.53-14.216,13.813-15.608,9.166-8.428,9.166-8.428Z" transform="translate(-4794.587 -662.228)"/></g></g></g></svg>